<?xml version="1.0" encoding="UTF-8" ?>
<!DOCTYPE svg PUBLIC "-//W3C//DTD SVG 1.1//EN" "http://www.w3.org/Graphics/SVG/1.1/DTD/svg11.dtd">
<svg width="984pt" height="672pt" viewBox="0 0 984 672" version="1.1" xmlns="http://www.w3.org/2000/svg">
<g id="#4eb6acff">
<path fill="#4eb6ac" opacity="1.00" d=" M 471.52 97.88 C 514.83 94.14 559.12 102.46 598.07 121.80 C 630.87 137.97 659.85 161.82 682.06 190.87 C 706.82 223.12 723.11 261.78 728.90 302.01 C 735.68 347.19 728.92 394.26 709.80 435.73 C 696.24 465.47 676.54 492.41 652.21 514.25 C 623.83 539.88 589.20 558.51 552.18 568.09 C 508.05 579.66 460.61 578.15 417.30 563.82 C 382.81 552.55 350.99 533.25 325.01 507.93 C 296.58 480.23 275.08 445.41 263.41 407.46 C 254.99 380.23 251.29 351.47 252.97 323.01 C 255.02 286.72 265.41 250.91 283.26 219.23 C 299.89 189.54 322.97 163.49 350.42 143.38 C 385.60 117.49 428.00 101.58 471.52 97.88 M 547.13 129.99 C 546.22 133.92 546.21 138.05 546.78 142.03 C 546.91 143.81 548.53 144.61 550.17 144.30 C 550.81 138.51 550.45 132.63 550.40 126.81 C 549.31 127.84 547.40 128.31 547.13 129.99 M 577.61 136.69 C 573.60 139.17 570.01 142.36 566.88 145.87 C 565.65 147.06 565.40 148.75 565.57 150.39 C 571.60 147.60 578.62 142.88 579.40 135.74 C 578.95 135.98 578.05 136.46 577.61 136.69 M 514.14 141.17 C 516.90 146.53 521.27 150.78 525.73 154.74 C 526.35 153.82 527.05 152.93 527.60 151.96 C 525.63 148.55 522.74 145.75 519.88 143.10 C 518.38 141.51 516.13 141.44 514.14 141.17 M 529.99 166.98 C 527.19 171.08 527.37 176.52 528.86 181.07 C 530.49 186.01 535.03 188.98 537.95 193.04 C 541.07 198.67 538.31 205.76 541.64 211.32 C 542.95 213.53 544.34 216.16 547.02 216.90 C 549.56 217.53 553.05 218.26 554.83 215.76 C 559.54 209.83 558.05 201.81 557.90 194.82 C 561.73 190.66 565.87 186.58 568.31 181.41 C 569.94 176.08 569.62 169.60 565.65 165.34 C 561.51 160.81 556.31 156.06 549.76 156.21 C 542.01 156.40 534.24 160.42 529.99 166.98 M 578.31 174.95 C 581.55 178.46 586.68 178.36 591.05 179.08 C 593.72 179.59 596.36 178.89 598.93 178.21 C 594.01 174.63 587.84 173.57 581.94 172.90 C 580.33 172.52 579.23 173.91 578.31 174.95 M 503.13 175.80 C 507.76 179.30 513.88 179.23 519.32 178.20 C 520.45 177.97 521.05 177.21 521.11 175.94 C 519.75 174.63 517.82 174.39 516.03 174.29 C 511.69 174.04 507.14 173.83 503.13 175.80 M 516.11 207.68 C 521.23 205.56 525.45 201.92 529.96 198.82 C 528.97 197.91 527.98 197.01 527.00 196.12 C 522.91 199.36 516.34 201.59 516.11 207.68 M 568.00 201.02 C 570.99 204.56 575.41 206.34 579.30 208.67 C 580.18 207.73 581.06 206.78 581.94 205.84 C 577.55 202.50 573.12 198.88 567.73 197.31 C 567.39 198.56 566.73 200.04 568.00 201.02 M 409.07 214.12 C 404.55 218.02 402.70 223.91 400.01 229.05 C 396.40 235.90 394.87 243.54 393.03 251.00 C 391.44 257.95 388.92 264.78 388.89 272.00 C 388.86 279.53 386.08 286.64 385.01 294.02 C 384.31 298.73 383.13 303.35 382.11 308.00 C 380.52 316.61 380.05 325.38 378.89 334.05 C 378.39 343.70 378.05 353.37 377.36 363.01 C 377.66 373.71 377.39 384.49 379.43 395.06 C 380.46 404.20 382.68 413.21 382.74 422.46 C 377.57 421.68 372.45 420.48 367.53 418.69 C 361.43 416.64 355.66 412.60 348.95 413.22 C 347.10 413.25 344.07 413.52 344.15 416.03 C 343.83 419.68 346.40 422.68 348.98 424.91 C 355.62 430.22 363.64 433.28 371.41 436.53 C 376.11 438.49 381.10 439.56 386.06 440.64 C 391.03 455.98 393.35 472.02 394.94 488.01 C 395.90 495.69 396.19 503.46 397.93 511.02 C 399.62 518.61 400.39 527.06 405.98 532.99 C 411.09 538.16 417.65 543.22 425.35 542.65 C 428.23 542.24 432.47 541.59 432.84 537.99 C 434.70 529.32 429.14 521.50 428.84 512.98 C 428.36 507.35 429.36 501.73 431.32 496.45 C 434.83 505.64 435.59 515.82 440.55 524.45 C 446.28 534.13 459.21 537.86 469.61 534.54 C 472.14 531.29 472.40 526.44 470.38 522.87 C 468.28 518.98 465.13 515.80 462.86 512.03 C 459.92 507.62 459.05 502.15 459.25 496.94 C 459.37 490.26 463.11 484.41 464.14 477.90 C 468.19 461.80 470.98 445.43 473.35 429.01 C 475.59 419.86 475.40 410.41 475.72 401.07 C 475.85 387.97 474.64 374.90 472.91 361.93 C 480.32 365.31 488.89 368.96 497.04 366.04 C 508.07 361.02 514.77 350.35 522.54 341.57 C 528.07 335.42 531.59 327.89 535.85 320.88 C 539.52 313.67 543.61 305.32 540.64 297.12 C 539.75 293.38 536.36 291.24 533.24 289.50 C 531.78 286.23 528.45 282.16 524.49 284.38 C 517.30 290.41 513.05 299.05 507.61 306.53 C 503.66 311.12 500.93 316.55 497.35 321.40 C 494.30 325.11 490.29 329.48 484.93 328.23 C 475.24 326.07 469.45 317.20 462.03 311.38 C 460.06 304.39 460.03 297.07 460.43 289.87 C 460.72 286.30 462.03 282.86 463.82 279.78 C 465.36 276.92 468.80 275.41 471.97 275.80 C 479.34 276.61 486.38 279.15 493.37 281.53 C 495.80 282.33 498.53 283.17 500.95 281.85 C 500.44 278.83 498.83 276.18 497.42 273.52 C 495.21 269.40 493.93 264.88 492.22 260.56 C 498.87 262.17 505.97 263.49 512.69 261.47 C 516.63 260.22 519.49 257.03 521.92 253.84 C 524.74 250.23 524.74 245.31 524.23 240.97 C 523.63 235.46 519.51 229.88 513.62 229.58 C 504.35 228.82 494.34 229.92 485.99 224.95 C 481.26 222.74 479.27 217.64 476.07 213.88 C 470.94 207.66 462.80 204.76 454.95 204.21 C 447.04 203.78 439.08 202.76 431.16 203.61 C 422.86 204.54 415.33 208.77 409.07 214.12 M 545.91 236.15 C 546.92 236.99 548.19 237.40 549.36 238.00 C 549.23 232.37 550.77 226.36 548.13 221.08 C 545.59 225.64 545.14 231.06 545.91 236.15 Z" />
</g>
<g id="#34454eff">
<path fill="#34454e" opacity="1.00" d=" M 547.13 129.99 C 547.40 128.31 549.31 127.84 550.40 126.81 C 550.45 132.63 550.81 138.51 550.17 144.30 C 548.53 144.61 546.91 143.81 546.78 142.03 C 546.21 138.05 546.22 133.92 547.13 129.99 Z" />
<path fill="#34454e" opacity="1.00" d=" M 577.61 136.69 C 578.05 136.46 578.95 135.98 579.40 135.74 C 578.62 142.88 571.60 147.60 565.57 150.39 C 565.40 148.75 565.65 147.06 566.88 145.87 C 570.01 142.36 573.60 139.17 577.61 136.69 Z" />
<path fill="#34454e" opacity="1.00" d=" M 514.14 141.17 C 516.13 141.44 518.38 141.51 519.88 143.10 C 522.74 145.75 525.63 148.55 527.60 151.96 C 527.05 152.93 526.35 153.82 525.73 154.74 C 521.27 150.78 516.90 146.53 514.14 141.17 Z" />
<path fill="#34454e" opacity="1.00" d=" M 529.99 166.98 C 534.24 160.42 542.01 156.40 549.76 156.21 C 556.31 156.06 561.51 160.81 565.65 165.34 C 569.62 169.60 569.94 176.08 568.31 181.41 C 565.87 186.58 561.73 190.66 557.90 194.82 C 558.05 201.81 559.54 209.83 554.83 215.76 C 553.05 218.26 549.56 217.53 547.02 216.90 C 544.34 216.16 542.95 213.53 541.64 211.32 C 538.31 205.76 541.07 198.67 537.95 193.04 C 535.03 188.98 530.49 186.01 528.86 181.07 C 527.37 176.52 527.19 171.08 529.99 166.98 M 534.08 167.11 C 531.26 170.59 531.74 175.53 532.76 179.59 C 534.17 184.52 538.85 187.25 541.73 191.19 C 543.10 194.25 543.37 197.75 545.21 200.64 C 545.36 196.03 545.08 191.43 544.72 186.84 C 543.18 185.44 541.32 184.17 540.57 182.15 C 540.30 179.60 541.32 177.18 541.97 174.78 C 546.82 175.35 546.52 180.94 547.33 184.58 C 547.67 184.46 548.35 184.22 548.68 184.10 C 548.40 180.08 547.65 173.80 553.04 173.02 C 555.57 177.32 554.14 182.27 551.62 186.19 C 551.35 190.57 551.90 194.94 552.64 199.25 C 553.16 199.42 554.19 199.76 554.71 199.93 C 554.73 197.67 554.38 195.35 554.98 193.14 C 558.46 188.81 563.11 185.23 565.26 179.95 C 567.14 171.32 560.51 163.38 552.93 160.30 C 546.14 158.99 538.35 161.54 534.08 167.11 M 551.24 180.21 C 552.65 180.64 553.15 178.25 551.93 177.76 C 550.50 177.32 550.02 179.71 551.24 180.21 M 542.93 178.38 C 541.97 179.45 542.51 181.57 543.95 181.96 C 545.98 181.77 544.78 177.48 542.93 178.38 M 547.18 191.22 C 547.50 194.54 546.97 198.15 549.10 201.01 C 549.35 195.97 549.39 190.84 548.20 185.90 C 547.37 187.56 546.95 189.37 547.18 191.22 M 541.72 203.84 C 546.17 204.74 550.69 205.12 555.21 205.38 C 554.92 204.77 554.33 203.54 554.04 202.92 C 549.94 203.02 545.43 201.35 541.72 203.84 M 543.20 208.15 C 547.06 210.44 551.59 210.27 555.83 209.33 C 551.79 207.87 547.43 207.81 543.20 208.15 M 546.57 213.49 C 549.23 214.70 552.15 214.89 554.57 212.97 C 551.89 212.97 549.22 213.16 546.57 213.49 Z" />
<path fill="#34454e" opacity="1.00" d=" M 516.11 207.68 C 516.34 201.59 522.91 199.36 527.00 196.12 C 527.98 197.01 528.97 197.91 529.96 198.82 C 525.45 201.92 521.23 205.56 516.11 207.68 Z" />
<path fill="#34454e" opacity="1.00" d=" M 568.00 201.02 C 566.73 200.04 567.39 198.56 567.73 197.31 C 573.12 198.88 577.55 202.50 581.94 205.84 C 581.06 206.78 580.18 207.73 579.30 208.67 C 575.41 206.34 570.99 204.56 568.00 201.02 Z" />
</g>
<g id="#34444dff">
<path fill="#34444d" opacity="1.00" d=" M 578.31 174.95 C 579.23 173.91 580.33 172.52 581.94 172.90 C 587.84 173.57 594.01 174.63 598.93 178.21 C 596.36 178.89 593.72 179.59 591.05 179.08 C 586.68 178.36 581.55 178.46 578.31 174.95 Z" />
</g>
<g id="#33404aff">
<path fill="#33404a" opacity="1.00" d=" M 503.13 175.80 C 507.14 173.83 511.69 174.04 516.03 174.29 C 517.82 174.39 519.75 174.63 521.11 175.94 C 521.05 177.21 520.45 177.97 519.32 178.20 C 513.88 179.23 507.76 179.30 503.13 175.80 Z" />
</g>
<g id="#181f2375">
<path fill="#181f23" opacity="0.46" d=" M 551.24 180.21 C 550.02 179.71 550.50 177.32 551.93 177.76 C 553.15 178.25 552.65 180.64 551.24 180.21 Z" />
</g>
<g id="#06080920">
<path fill="#060809" opacity="0.13" d=" M 547.18 191.22 C 546.95 189.37 547.37 187.56 548.20 185.90 C 549.39 190.84 549.35 195.97 549.10 201.01 C 546.97 198.15 547.50 194.54 547.18 191.22 Z" />
</g>
<g id="#9fc47bff">
<path fill="#9fc47b" opacity="1.00" d=" M 541.72 203.84 C 545.43 201.35 549.94 203.02 554.04 202.92 C 554.33 203.54 554.92 204.77 555.21 205.38 C 550.69 205.12 546.17 204.74 541.72 203.84 Z" />
</g>
<g id="#34444eff">
<path fill="#34444e" opacity="1.00" d=" M 409.07 214.12 C 415.33 208.77 422.86 204.54 431.16 203.61 C 439.08 202.76 447.04 203.78 454.95 204.21 C 462.80 204.76 470.94 207.66 476.07 213.88 C 479.27 217.64 481.26 222.74 485.99 224.95 C 494.34 229.92 504.35 228.82 513.62 229.58 C 519.51 229.88 523.63 235.46 524.23 240.97 C 524.74 245.31 524.74 250.23 521.92 253.84 C 519.49 257.03 516.63 260.22 512.69 261.47 C 505.97 263.49 498.87 262.17 492.22 260.56 C 493.93 264.88 495.21 269.40 497.42 273.52 C 498.83 276.18 500.44 278.83 500.95 281.85 C 498.53 283.17 495.80 282.33 493.37 281.53 C 486.38 279.15 479.34 276.61 471.97 275.80 C 468.80 275.41 465.36 276.92 463.82 279.78 C 462.03 282.86 460.72 286.30 460.43 289.87 C 460.03 297.07 460.06 304.39 462.03 311.38 C 469.45 317.20 475.24 326.07 484.93 328.23 C 490.29 329.48 494.30 325.11 497.35 321.40 C 500.93 316.55 503.66 311.12 507.61 306.53 C 513.05 299.05 517.30 290.41 524.49 284.38 C 528.45 282.16 531.78 286.23 533.24 289.50 C 536.36 291.24 539.75 293.38 540.64 297.12 C 543.61 305.32 539.52 313.67 535.85 320.88 C 531.59 327.89 528.07 335.42 522.54 341.57 C 514.77 350.35 508.07 361.02 497.04 366.04 C 488.89 368.96 480.32 365.31 472.91 361.93 C 474.64 374.90 475.85 387.97 475.72 401.07 C 475.40 410.41 475.59 419.86 473.35 429.01 C 470.98 445.43 468.19 461.80 464.14 477.90 C 463.11 484.41 459.37 490.26 459.25 496.94 C 459.05 502.15 459.92 507.62 462.86 512.03 C 465.13 515.80 468.28 518.98 470.38 522.87 C 472.40 526.44 472.14 531.29 469.61 534.54 C 459.21 537.86 446.28 534.13 440.55 524.45 C 435.59 515.82 434.83 505.64 431.32 496.45 C 429.36 501.73 428.36 507.35 428.84 512.98 C 429.14 521.50 434.70 529.32 432.84 537.99 C 432.47 541.59 428.23 542.24 425.35 542.65 C 417.65 543.22 411.09 538.16 405.98 532.99 C 400.39 527.06 399.62 518.61 397.93 511.02 C 396.19 503.46 395.90 495.69 394.94 488.01 C 393.35 472.02 391.03 455.98 386.06 440.64 C 381.10 439.56 376.11 438.49 371.41 436.53 C 363.64 433.28 355.62 430.22 348.98 424.91 C 346.40 422.68 343.83 419.68 344.15 416.03 C 344.07 413.52 347.10 413.25 348.95 413.22 C 355.66 412.60 361.43 416.64 367.53 418.69 C 372.45 420.48 377.57 421.68 382.74 422.46 C 382.68 413.21 380.46 404.20 379.43 395.06 C 377.39 384.49 377.66 373.71 377.36 363.01 C 378.05 353.37 378.39 343.70 378.89 334.05 C 380.05 325.38 380.52 316.61 382.11 308.00 C 383.13 303.35 384.31 298.73 385.01 294.02 C 386.08 286.64 388.86 279.53 388.89 272.00 C 388.92 264.78 391.44 257.95 393.03 251.00 C 394.87 243.54 396.40 235.90 400.01 229.05 C 402.70 223.91 404.55 218.02 409.07 214.12 M 422.54 209.46 C 414.53 212.11 408.40 218.80 405.39 226.56 C 399.60 237.27 398.39 249.51 394.90 261.00 C 392.91 267.63 393.98 274.68 392.26 281.36 C 387.34 301.66 384.09 322.39 383.23 343.28 C 382.52 353.49 381.98 363.72 382.48 373.96 C 382.30 388.48 386.43 402.58 387.26 417.02 C 387.82 424.45 388.89 431.86 390.92 439.03 C 395.86 456.99 399.24 475.42 399.75 494.07 C 399.76 503.35 402.74 512.23 404.75 521.19 C 406.37 528.03 411.52 533.16 417.13 537.03 C 416.08 533.83 414.86 530.71 413.63 527.59 C 414.47 526.76 415.32 525.94 416.18 525.13 C 420.25 529.72 421.14 536.09 424.85 540.91 C 425.76 534.32 421.59 528.65 421.39 522.21 C 426.45 525.34 428.15 531.11 429.78 536.45 C 429.11 528.35 424.67 521.11 424.36 512.96 C 424.18 507.83 425.10 502.69 426.83 497.87 C 430.06 488.97 433.69 480.22 437.88 471.74 C 442.76 461.98 446.55 451.74 450.62 441.64 C 454.07 431.44 456.18 420.68 455.78 409.88 C 456.92 409.61 458.06 409.36 459.20 409.11 C 459.70 413.33 460.12 417.61 459.53 421.85 C 457.92 431.64 455.46 441.32 451.35 450.37 C 447.06 462.77 440.51 474.19 435.29 486.19 C 433.37 489.93 435.09 493.96 436.18 497.65 C 438.84 505.94 440.05 514.84 444.60 522.42 C 447.19 526.84 451.88 529.29 456.22 531.67 C 454.74 528.35 453.10 525.10 451.41 521.89 C 451.89 521.19 452.87 519.78 453.35 519.08 C 457.31 522.86 459.82 527.75 462.65 532.35 C 461.05 527.67 459.25 523.05 457.97 518.27 C 458.67 518.84 460.08 519.98 460.78 520.55 C 461.36 519.98 461.93 519.39 462.50 518.81 C 458.39 514.44 454.96 509.10 454.56 502.95 C 453.11 493.44 458.18 484.80 459.74 475.67 C 463.36 461.28 465.39 446.57 467.99 431.99 C 470.10 422.79 470.26 413.32 471.07 403.96 C 472.00 387.25 469.85 370.57 467.76 354.03 C 465.11 340.16 463.37 325.99 458.36 312.71 C 455.84 305.77 455.98 298.27 456.28 291.00 C 456.61 284.42 459.36 277.64 464.68 273.55 C 466.99 271.72 470.13 272.04 472.88 272.30 C 481.01 273.35 488.69 276.35 496.27 279.34 C 491.89 271.56 487.30 263.20 487.53 254.01 C 492.91 257.76 499.23 260.09 505.90 259.42 C 514.96 259.69 522.88 250.09 520.52 241.27 C 517.83 238.24 513.82 236.75 510.46 234.57 C 506.44 231.94 501.47 232.71 496.93 232.20 C 491.55 231.83 486.33 229.96 481.80 227.08 C 476.60 223.60 475.03 216.86 470.00 213.20 C 463.73 208.44 455.53 208.01 447.98 207.76 C 439.50 207.60 430.76 206.85 422.54 209.46 M 514.71 233.44 C 514.01 234.86 516.36 236.49 517.56 235.57 C 518.26 234.13 515.91 232.50 514.71 233.44 M 516.16 301.17 C 513.18 306.43 509.36 311.14 506.23 316.30 C 502.63 322.14 498.34 327.88 492.37 331.46 C 488.77 333.59 484.29 332.57 480.68 331.04 C 474.62 328.05 469.30 323.80 464.25 319.35 C 468.16 331.91 470.51 344.86 472.60 357.83 C 479.11 361.85 487.11 365.07 494.79 362.68 C 500.30 360.31 504.33 355.64 508.33 351.33 C 514.57 344.17 521.14 337.16 525.95 328.90 C 530.33 321.65 535.47 314.48 537.19 306.03 C 538.21 301.72 536.40 297.53 534.54 293.74 C 532.77 293.59 531.02 293.46 529.27 293.31 C 528.85 291.03 528.49 288.75 527.92 286.51 C 522.68 290.17 519.46 295.86 516.16 301.17 M 347.38 416.89 C 349.77 419.74 352.36 422.50 355.61 424.39 C 364.79 429.85 374.66 434.21 385.06 436.78 C 384.52 433.27 384.00 429.76 383.50 426.26 C 375.72 424.94 367.70 424.01 360.55 420.45 C 356.45 418.36 351.99 417.06 347.38 416.89 M 462.58 522.13 C 464.51 525.24 465.89 528.63 467.47 531.92 C 467.27 527.89 466.09 523.99 464.23 520.42 C 463.67 520.98 463.12 521.55 462.58 522.13 Z" />
<path fill="#34444e" opacity="1.00" d=" M 416.78 226.79 C 418.31 221.47 420.79 216.40 424.56 212.30 C 424.69 214.84 425.09 217.51 424.12 219.95 C 420.81 228.46 417.70 237.04 414.69 245.66 C 413.63 249.29 412.15 253.84 414.88 257.11 C 418.53 261.56 424.04 264.85 429.93 264.73 C 432.85 264.63 436.22 264.50 438.42 262.30 C 439.77 260.52 439.54 258.12 439.72 256.01 C 439.71 249.36 440.62 242.71 440.14 236.06 C 439.94 231.50 439.38 226.65 441.48 222.42 C 442.13 220.98 443.91 220.64 445.07 219.74 C 444.43 225.45 443.73 231.18 444.14 236.94 C 444.39 244.67 443.41 252.37 443.21 260.09 C 443.05 265.70 436.67 267.68 432.02 267.99 C 424.22 269.13 416.77 264.84 411.76 259.17 C 408.36 255.34 408.74 249.73 410.21 245.17 C 412.23 238.98 414.89 233.02 416.78 226.79 Z" />
<path fill="#34444e" opacity="1.00" d=" M 404.06 319.01 C 404.79 312.66 403.86 306.15 405.56 299.92 C 411.00 308.73 407.34 319.33 408.28 328.99 C 409.34 338.19 406.12 347.03 405.47 356.12 C 404.37 366.77 402.62 377.35 400.90 387.92 C 399.72 395.95 394.54 402.92 394.79 411.23 C 398.25 408.71 401.08 405.48 403.72 402.14 C 404.34 402.51 405.58 403.24 406.20 403.60 C 403.58 407.10 400.69 410.38 397.84 413.69 C 399.48 414.52 401.13 415.36 402.78 416.19 C 405.86 411.75 407.48 405.65 412.91 403.43 C 410.82 407.55 408.34 411.47 406.44 415.70 C 410.70 413.21 414.27 409.58 416.32 405.06 C 425.91 385.62 432.71 364.71 435.37 343.16 C 436.68 333.07 439.67 323.27 440.33 313.09 C 440.58 310.03 440.80 306.66 443.33 304.52 C 444.40 306.77 444.75 309.30 444.55 311.78 C 443.94 321.02 441.59 330.01 440.38 339.17 C 437.90 361.71 430.65 383.52 420.97 403.96 C 418.39 408.76 415.76 414.22 410.62 416.73 C 404.83 418.93 397.16 419.34 392.70 414.28 C 389.75 411.20 390.61 406.53 391.88 402.89 C 393.90 397.37 396.22 391.89 397.13 386.03 C 398.80 375.43 400.22 364.78 401.18 354.08 C 401.72 347.31 404.35 340.81 403.91 333.95 C 403.62 328.97 403.46 323.97 404.06 319.01 Z" />
</g>
<g id="#359857ff">
<path fill="#359857" opacity="1.00" d=" M 422.54 209.46 C 430.76 206.85 439.50 207.60 447.98 207.76 C 455.53 208.01 463.73 208.44 470.00 213.20 C 475.03 216.86 476.60 223.60 481.80 227.08 C 486.33 229.96 491.55 231.83 496.93 232.20 C 501.47 232.71 506.44 231.94 510.46 234.57 C 513.82 236.75 517.83 238.24 520.52 241.27 C 522.88 250.09 514.96 259.69 505.90 259.42 C 499.23 260.09 492.91 257.76 487.53 254.01 C 487.30 263.20 491.89 271.56 496.27 279.34 C 488.69 276.35 481.01 273.35 472.88 272.30 C 470.13 272.04 466.99 271.72 464.68 273.55 C 459.36 277.64 456.61 284.42 456.28 291.00 C 455.98 298.27 455.84 305.77 458.36 312.71 C 463.37 325.99 465.11 340.16 467.76 354.03 C 469.85 370.57 472.00 387.25 471.07 403.96 C 470.26 413.32 470.10 422.79 467.99 431.99 C 465.39 446.57 463.36 461.28 459.74 475.67 C 458.18 484.80 453.11 493.44 454.56 502.95 C 454.96 509.10 458.39 514.44 462.50 518.81 C 461.93 519.39 461.36 519.98 460.78 520.55 C 460.08 519.98 458.67 518.84 457.97 518.27 C 459.25 523.05 461.05 527.67 462.65 532.35 C 459.82 527.75 457.31 522.86 453.35 519.08 C 452.87 519.78 451.89 521.19 451.41 521.89 C 453.10 525.10 454.74 528.35 456.22 531.67 C 451.88 529.29 447.19 526.84 444.60 522.42 C 440.05 514.84 438.84 505.94 436.18 497.65 C 435.09 493.96 433.37 489.93 435.29 486.19 C 440.51 474.19 447.06 462.77 451.35 450.37 C 455.46 441.32 457.92 431.64 459.53 421.85 C 460.12 417.61 459.70 413.33 459.20 409.11 C 458.06 409.36 456.92 409.61 455.78 409.88 C 456.18 420.68 454.07 431.44 450.62 441.64 C 446.55 451.74 442.76 461.98 437.88 471.74 C 433.69 480.22 430.06 488.97 426.83 497.87 C 425.10 502.69 424.18 507.83 424.36 512.96 C 424.67 521.11 429.11 528.35 429.78 536.45 C 428.15 531.11 426.45 525.34 421.39 522.21 C 421.59 528.65 425.76 534.32 424.85 540.91 C 421.14 536.09 420.25 529.72 416.18 525.13 C 415.32 525.94 414.47 526.76 413.63 527.59 C 414.86 530.71 416.08 533.83 417.13 537.03 C 411.52 533.16 406.37 528.03 404.75 521.19 C 402.74 512.23 399.76 503.35 399.75 494.07 C 399.24 475.42 395.86 456.99 390.92 439.03 C 388.89 431.86 387.82 424.45 387.26 417.02 C 386.43 402.58 382.30 388.48 382.48 373.96 C 381.98 363.72 382.52 353.49 383.23 343.28 C 384.09 322.39 387.34 301.66 392.26 281.36 C 393.98 274.68 392.91 267.63 394.90 261.00 C 398.39 249.51 399.60 237.27 405.39 226.56 C 408.40 218.80 414.53 212.11 422.54 209.46 M 416.78 226.79 C 414.89 233.02 412.23 238.98 410.21 245.17 C 408.74 249.73 408.36 255.34 411.76 259.17 C 416.77 264.84 424.22 269.13 432.02 267.99 C 436.67 267.68 443.05 265.70 443.21 260.09 C 443.41 252.37 444.39 244.67 444.14 236.94 C 443.73 231.18 444.43 225.45 445.07 219.74 C 443.91 220.64 442.13 220.98 441.48 222.42 C 439.38 226.65 439.94 231.50 440.14 236.06 C 440.62 242.71 439.71 249.36 439.72 256.01 C 439.54 258.12 439.77 260.52 438.42 262.30 C 436.22 264.50 432.85 264.63 429.93 264.73 C 424.04 264.85 418.53 261.56 414.88 257.11 C 412.15 253.84 413.63 249.29 414.69 245.66 C 417.70 237.04 420.81 228.46 424.12 219.95 C 425.09 217.51 424.69 214.84 424.56 212.30 C 420.79 216.40 418.31 221.47 416.78 226.79 M 460.44 223.61 C 462.06 224.14 463.68 225.16 465.47 224.85 C 465.57 223.09 465.48 221.33 465.42 219.57 C 463.75 220.90 462.07 222.23 460.44 223.61 M 404.06 319.01 C 403.46 323.97 403.62 328.97 403.91 333.95 C 404.35 340.81 401.72 347.31 401.18 354.08 C 400.22 364.78 398.80 375.43 397.13 386.03 C 396.22 391.89 393.90 397.37 391.88 402.89 C 390.61 406.53 389.75 411.20 392.70 414.28 C 397.16 419.34 404.83 418.93 410.62 416.73 C 415.76 414.22 418.39 408.76 420.97 403.96 C 430.65 383.52 437.90 361.71 440.38 339.17 C 441.59 330.01 443.94 321.02 444.55 311.78 C 444.75 309.30 444.40 306.77 443.33 304.52 C 440.80 306.66 440.58 310.03 440.33 313.09 C 439.67 323.27 436.68 333.07 435.37 343.16 C 432.71 364.71 425.91 385.62 416.32 405.06 C 414.27 409.58 410.70 413.21 406.44 415.70 C 408.34 411.47 410.82 407.55 412.91 403.43 C 407.48 405.65 405.86 411.75 402.78 416.19 C 401.13 415.36 399.48 414.52 397.84 413.69 C 400.69 410.38 403.58 407.10 406.20 403.60 C 405.58 403.24 404.34 402.51 403.72 402.14 C 401.08 405.48 398.25 408.71 394.79 411.23 C 394.54 402.92 399.72 395.95 400.90 387.92 C 402.62 377.35 404.37 366.77 405.47 356.12 C 406.12 347.03 409.34 338.19 408.28 328.99 C 407.34 319.33 411.00 308.73 405.56 299.92 C 403.86 306.15 404.79 312.66 404.06 319.01 Z" />
<path fill="#359857" opacity="1.00" d=" M 516.16 301.17 C 519.46 295.86 522.68 290.17 527.92 286.51 C 528.49 288.75 528.85 291.03 529.27 293.31 C 531.02 293.46 532.77 293.59 534.54 293.74 C 536.40 297.53 538.21 301.72 537.19 306.03 C 535.47 314.48 530.33 321.65 525.95 328.90 C 521.14 337.16 514.57 344.17 508.33 351.33 C 504.33 355.64 500.30 360.31 494.79 362.68 C 487.11 365.07 479.11 361.85 472.60 357.83 C 470.51 344.86 468.16 331.91 464.25 319.35 C 469.30 323.80 474.62 328.05 480.68 331.04 C 484.29 332.57 488.77 333.59 492.37 331.46 C 498.34 327.88 502.63 322.14 506.23 316.30 C 509.36 311.14 513.18 306.43 516.16 301.17 Z" />
<path fill="#359857" opacity="1.00" d=" M 347.38 416.89 C 351.99 417.06 356.45 418.36 360.55 420.45 C 367.70 424.01 375.72 424.94 383.50 426.26 C 384.00 429.76 384.52 433.27 385.06 436.78 C 374.66 434.21 364.79 429.85 355.61 424.39 C 352.36 422.50 349.77 419.74 347.38 416.89 Z" />
<path fill="#359857" opacity="1.00" d=" M 462.58 522.13 C 463.12 521.55 463.67 520.98 464.23 520.42 C 466.09 523.99 467.27 527.89 467.47 531.92 C 465.89 528.63 464.51 525.24 462.58 522.13 Z" />
</g>
<g id="#8aab72ff">
<path fill="#8aab72" opacity="1.00" d=" M 543.20 208.15 C 547.43 207.81 551.79 207.87 555.83 209.33 C 551.59 210.27 547.06 210.44 543.20 208.15 Z" />
</g>
<g id="#85a670ff">
<path fill="#85a670" opacity="1.00" d=" M 546.57 213.49 C 549.22 213.16 551.89 212.97 554.57 212.97 C 552.15 214.89 549.23 214.70 546.57 213.49 Z" />
</g>
<g id="#34434eff">
<path fill="#34434e" opacity="1.00" d=" M 460.44 223.61 C 462.07 222.23 463.75 220.90 465.42 219.57 C 465.48 221.33 465.57 223.09 465.47 224.85 C 463.68 225.16 462.06 224.14 460.44 223.61 Z" />
</g>
<g id="#33424cff">
<path fill="#33424c" opacity="1.00" d=" M 545.91 236.15 C 545.14 231.06 545.59 225.64 548.13 221.08 C 550.77 226.36 549.23 232.37 549.36 238.00 C 548.19 237.40 546.92 236.99 545.91 236.15 Z" />
</g>
<g id="#357954ff">
<path fill="#357954" opacity="1.00" d=" M 514.71 233.44 C 515.91 232.50 518.26 234.13 517.56 235.57 C 516.36 236.49 514.01 234.86 514.71 233.44 Z" />
</g>
</svg>
